<svg width="84" height="139" viewBox="0 0 84 139" fill="none" xmlns="http://www.w3.org/2000/svg">
<g clip-path="url(#clip0_302_18)">
<path d="M66.7546 125.609C61.6723 133.706 51.622 139 37.1747 139C14.5044 139 0 126.387 0 108.947V77.0261H16.9599V105.989C16.9599 117.979 26.1536 126.387 41.8572 126.387C56.9898 126.387 66.412 118.602 67.0401 107.079V75.988H84V137.443H66.7546V125.609Z" fill="white"/>
<path d="M16.8457 29.4817C22.3848 21.3846 32.1496 15.9347 46.654 15.9347C69.4956 15.9347 84 28.7031 84 45.9873V75.9881H67.0401V49.1016C67.0401 37.1117 57.4466 28.7031 41.9714 28.7031C26.6676 28.7031 17.5309 36.4888 16.9599 48.1673V74.4309V77.0261H0V74.8981V17.4918H16.8457V29.4817Z" fill="white"/>
<path d="M72.5792 0C78.2325 0 82.1727 3.73712 82.1727 8.56423C82.1727 13.3913 78.2325 16.9727 72.5792 16.9727C67.4399 16.9727 63.3284 13.3913 63.3284 8.56423C63.3284 3.73712 67.4399 0 72.5792 0Z" fill="white"/>
</g>
<defs>
<clipPath id="clip0_302_18">
<rect width="84" height="139" fill="white"/>
</clipPath>
</defs>
</svg>
